<?xml version="1.0"?>
<svg xmlns="http://www.w3.org/2000/svg" id="Layer_1" data-name="Layer 1" viewBox="0 0 512 512" width="512" height="512"><title>pin location navigation</title><path d="M420.48,220.47a125.712,125.712,0,1,1-120.41,11.05c.14-.09.28-.19.42-.28a124.971,124.971,0,0,1,64.84-21.08c1.66-.07,3.33-.1,5-.1A125.119,125.119,0,0,1,420.48,220.47Zm5.23,123.33a44.866,44.866,0,1,0-63.45,0A44.868,44.868,0,0,0,425.71,343.8Z" style="fill:#e48e66"/><ellipse cx="393.985" cy="312.075" rx="44.869" ry="44.863" style="fill:#f8ec7d"/><path d="M420.48,133.35v87.12a125.119,125.119,0,0,0-50.15-10.41c-1.67,0-3.34.03-5,.1V96.57h18.38A36.775,36.775,0,0,1,420.48,133.35Z" style="fill:#f8ec7d"/><path d="M365.33,96.57V210.16a124.971,124.971,0,0,0-64.84,21.08l-.12-.18-31.03-19.94a21.059,21.059,0,0,0-27.33,2.63l-31.25,32.57-.12-.11-68.32-42.38a21.037,21.037,0,0,0-24.2,1.41L16.01,272.86H16V87.38A36.767,36.767,0,0,1,52.77,50.61H328.55a36.775,36.775,0,0,1,36.78,36.77ZM195.52,126.95a41.365,41.365,0,1,0-41.37,41.37A41.367,41.367,0,0,0,195.52,126.95Z" style="fill:#6fe3ff"/><path d="M300.37,231.06l.12.18c-.14.09-.28.19-.42.28a125.8,125.8,0,0,0-52.6,77.69H150.61V309l60.15-62.68,31.25-32.57a21.059,21.059,0,0,1,27.33-2.63Z" style="fill:#cc7350"/><path d="M150.61,309.21h96.86a126.932,126.932,0,0,0-1.3,45.97H107.93a36.767,36.767,0,0,1-36.77-36.77v-9.2Z" style="fill:#f8ec7d"/><path d="M210.76,246.32,150.61,309v.21H52.77A36.77,36.77,0,0,1,16,272.86h.01l102.11-67.62a21.037,21.037,0,0,1,24.2-1.41l68.32,42.38Z" style="fill:#e2d574"/><path d="M154.15,85.58a41.37,41.37,0,1,1-41.36,41.37A41.367,41.367,0,0,1,154.15,85.58Z" style="fill:#f8ec7d"/><path d="M154.15,174.32a47.37,47.37,0,1,0-47.36-47.37A47.424,47.424,0,0,0,154.15,174.32Zm0-82.74a35.37,35.37,0,1,1-35.36,35.37A35.41,35.41,0,0,1,154.15,91.58Z" style="fill:#63316d"/><path d="M426.48,216.618V133.35a42.824,42.824,0,0,0-42.77-42.78H371.33V87.38a42.824,42.824,0,0,0-42.78-42.77H52.77A42.819,42.819,0,0,0,10,87.38V272.929A42.922,42.922,0,0,0,52.77,315.21H65.16v3.2a42.819,42.819,0,0,0,42.77,42.77H241.14A131.686,131.686,0,0,0,370.33,467.39c72.6,0,131.67-59.068,131.67-131.67A131.67,131.67,0,0,0,426.48,216.618ZM383.71,102.57a30.81,30.81,0,0,1,30.77,30.78v78.3a130.719,130.719,0,0,0-43.15-7.582V102.57ZM52.77,56.61H328.55a30.81,30.81,0,0,1,30.78,30.77V204.531a131.159,131.159,0,0,0-58.764,19.522l-27.881-17.915a26.906,26.906,0,0,0-35,3.458l-27.867,29.041-64.328-39.9a27.1,27.1,0,0,0-30.883,1.64L22,261.7V87.38A30.8,30.8,0,0,1,52.77,56.61Zm111.711,246.6,81.857-85.3a14.978,14.978,0,0,1,19.545-1.882c.07.05.141.1.213.145l23.813,15.3a130.88,130.88,0,0,0-47.186,71.741ZM22.194,275.962l99.239-65.719c.145-.1.287-.2.424-.308a15.065,15.065,0,0,1,17.3-1.006l62.162,38.56L147.851,303.21H52.77A30.9,30.9,0,0,1,22.194,275.962ZM77.16,318.41v-3.2H240.266a131.153,131.153,0,0,0-.892,33.97H107.93A30.8,30.8,0,0,1,77.16,318.41ZM370.33,455.39A119.56,119.56,0,0,1,250.67,335.72a120.842,120.842,0,0,1,2.666-25.249,119.129,119.129,0,0,1,50.093-73.98h0l.3-.2.1-.064a119.213,119.213,0,0,1,61.755-20.071c1.491-.063,3.088-.095,4.746-.095a118.7,118.7,0,0,1,47.751,9.91h0A119.682,119.682,0,0,1,370.33,455.39Z" style="fill:#63316d"/><path d="M429.951,276.105a50.862,50.862,0,0,0-75.921,67.44L297.577,400a6,6,0,1,0,8.486,8.484l56.456-56.456a50.86,50.86,0,0,0,67.434-75.919Zm-8.482,63.451a38.869,38.869,0,1,1,11.381-27.481A38.919,38.919,0,0,1,421.469,339.556Z" style="fill:#63316d"/><path d="M412.653,318.623a12.852,12.852,0,0,1-11.25,11.25,6,6,0,0,0,.71,11.958,6.115,6.115,0,0,0,.724-.044,24.823,24.823,0,0,0,21.73-21.73,6,6,0,1,0-11.914-1.434Z" style="fill:#63316d"/></svg>
